# xmcd
#
# Track frame offsets:
#	182
#	17572
#	30642
#	45182
#	56405
#	70037
#	94362
#	110780
#	122900
#	134732
#	156765
#	170457
#	183257
#	204727
#	218087
#	232992
#
# Disc length: 3255
#
# Revision: 1
# Processed by: cddbd v1.5.1PL0 Copyright (c) Steve Scherf et al.
# Submitted via: CDex 1.51
# Normalized: r0:DSETVAR1,TDELIM( - )
#
DISCID=dd0cb510
DTITLE=Various Artist - 16 All-time Jazz Sessions vol6
DYEAR=1988
DGENRE=Jazz
TTITLE0=Lionel Hampton - Hamp swing the Bells
TTITLE1=Django Reinhart - Ain't misbehavin'
TTITLE2=Modern Jazz Quartet - All the Things you are
TTITLE3=Dinah Washington - What a Diff'rence a Day make
TTITLE4=Charlie Parker - Relaxin' at Camarillo
TTITLE5=Louis Armstrong - I want a big Butter and Egg Man
TTITLE6=Harry James - Lush Life
TTITLE7=Duke Ellington - Pretty Woman
TTITLE8=George Shearing - Buccaneer's Bounce
TTITLE9=Miles Davis - Doxy
TTITLE10=Ella Fitzgerald - That certain feeling
TTITLE11=Count Basie - Out of the Window
TTITLE12=Gene Krupa - Imagination
TTITLE13=Benny Goodman - Wolverine Blues
TTITLE14=Lena Horne - Stormy Weather
TTITLE15=Dave Brubeck - I never know
EXTD=YEAR: 1988
EXTT0=
EXTT1=
EXTT2=
EXTT3=
EXTT4=
EXTT5=
EXTT6=
EXTT7=
EXTT8=
EXTT9=
EXTT10=
EXTT11=
EXTT12=
EXTT13=
EXTT14=
EXTT15=
PLAYORDER=
